<?xml version="1.0" encoding="UTF-8"?>
<svg width="708.66" height="708.66" fill-rule="evenodd" viewBox="0 0 566.92912 566.92908" xmlns="http://www.w3.org/2000/svg">
 <path d="m216.7 433.6c-5.108-14.723-11.601-29.111-13.706-44.545l-3.855-5.996c-13.773-1.722-27.658-8.49-37.263-18.418-9.688-10.014-11.055-20.833-14.134-34.693-9.847-44.313-16.979-91.312 7.709-132.35 4.957-8.239 12.614-14.521 18.846-21.844 5.189-6.097 9.989-12.534 15.419-18.417 26.687-28.911 62.839-38.98 101.08-33.837 28.52 3.835 57.78 13.974 80.523 31.695 21.403 16.677 33.06 27.119 39.833 53.539 6.7 26.134 19.661 54.724 16.705 82.237-2.655 24.7-13.715 50.92-32.124 68.102-4.371 4.08-10.137 6.362-14.991 9.851-9.664 6.945-17.106 19.392-28.269 22.273-5.161 1.332-11.124-0.328-15.848 2.141-13.261 6.933-10.676 24.331-15.419 36.835l-26.127 13.706c-15.715 0.32-32.377 1.715-47.971 0-10.526-1.157-20.739-6.297-30.411-10.279z" fill="#d9dbdc"/>
 <path d="m199.13534,383.05835c-2.145-.268-4.292-.659-6.425-1.164l-.022-.005-.053-.013-.514-.125-.154-.038c-.397-.099-.793-.202-1.189-.309l-.022-.006c-.417-.113-.834-.23-1.249-.352l-.017-.005-.013-.004-1.233-.375-.025-.008c-.024-.007-.047-.015-.071-.023l-.562-.181-.018-.005-.579-.193-.034-.012c-9.459-3.2-18.33-8.619-25.083-15.6-9.688-10.014-11.055-20.833-14.134-34.693-9.847-44.313-16.979-91.312 7.709-132.35 4.957-8.239 12.614-14.521 18.846-21.844 5.189-6.097 9.989-12.534 15.419-18.417 .396-.428.794-.851 1.193-1.271l.095-.1c.374-.392.749-.78 1.126-1.165l.203-.207c.363-.367.727-.731 1.092-1.092l.22-.217c.366-.36.734-.717 1.104-1.071l.203-.193c.389-.369.779-.736 1.171-1.099l.068-.062c.379-.35.76-.696 1.142-1.039l.194-.175c.378-.338.759-.672 1.14-1.003l.237-.206 1.093-.932 .309-.259c.379-.316.759-.63 1.141-.94l.189-.153c.397-.321.795-.639 1.195-.953l.206-.161c.404-.316.81-.629 1.217-.938l.025-.019 .022-.017 1.2-.894 .266-.197 1.165-.839 .276-.196 1.119-.779c.138-.095.277-.19.416-.284l1.029-.691 .47-.31 .834-.541c.216-.138.432-.276.649-.413 .276-.174.552-.347.83-.518l.469-.29 1.039-.626 .459-.273 1.028-.596 .501-.286 1.023-.572 .551-.301 .791-.426 .775-.408 .68-.352 .89-.451 .611-.303 .911-.444 .692-.329 .664-.311 .96-.439 .645-.287 .788-.346 .836-.357 .578-.242c.398-.166.797-.329 1.197-.49l.335-.134c.427-.17.856-.337 1.286-.501l.411-.158c.834-.315 1.671-.619 2.512-.914 .014-.005.028-.009.042-.014 .566-.198 1.133-.39 1.702-.578l.065-.022c2.047-.675 4.114-1.29 6.201-1.843-36.04,19.505-42.563,61.405-7.7,61.405 26.347,0 25.723.653 39.199-22.491 16.084-27.622 30.048,8.427 33.416,15.422 4.987,10.357 30.846,17.351 41.77,17.351 25.062,0 27.633-21.849 41.128-1.285 7.068,10.282 10.924,41.77 10.924,53.979-5.783-3.855-31.559-16.521-41.77-21.206-34.598-15.873-98.875-28.141-133.021-5.783-9.916,6.492-25.36,12.52-27.343,18.281-3.192,9.273.803,7.954 23.487-2.859 24.95-11.893 50.94,4.84 73.258,10.925 4.528,1.234 24.288,3.569 46.132,7.174 13.922,2.297 16.95-14.64 36.582,3.932 7.219,6.829 14.548,16.913 20.191,43.156 1.114,5.183 4.644,14.162 3.478,18.322-5.94,21.202-28.923,27.359-36.481,28.396-31.024,4.257-53.265-6.419-67.746-27.165-4.336-6.212-6.286-12.767-10.461-12.767-4.174,0-9.045,11.567-1.334,16.708 5.783,3.855 8.354,18.636 8.354,28.275 0,29.56-30.983.456-35.494,28.729-.347,2.17 4.894,31.734.273,34.089-4.393,2.239-6.881-28.644-11.258-27.38-2.621.756 2.109,27.525-1.236,27.881-5.251.558-7.149-27.827-11.601-26.89-4.903,1.032 2.846,25.478-2.417,25.727-5.239.248-5.037-25.187-10.32-23.391-2.799.951-.422,19.353-3.274,21.985-2.073,1.912-4.429,2.714-6.573,2.352-3.6-9.783-6.961-19.621-8.366-29.927l-1.476-2.297-2.379-3.699z" fill="#737476"/>
 <path d="m202.22 255.35c24.261-14.225 54.041-16.503 67.51 11.793 5.785 12.153 5.501 39.183 3.44 40.703-8.395 6.196-5.243 9.004-12.246 17.657-4.97 6.142-12.53 12.1-19.451 15.367-11.455 5.408-23.723 8.275-35.691 7.43-8.751-0.617-16.86-6.544-24.034-10.804-8.131-4.829-15.443-7.479-18.182-15.435-2.091-6.077-0.397-15.342 2.137-24.381 1.373-4.899 5.253-8.122 7.941-12.204 2.745-4.169 5.207-11.093 8.523-14.91 5.526-6.362 12.472-10.772 20.053-15.216z"/>
 <path d="m204.6 259.09c25.178-16.651 57.866-7.43 62.107 24.657 3.818 28.816-17.071 52.67-45.199 57.258-30.699 5.009-58.898-22.624-43.98-52.771 5.968-12.065 16.285-21.423 27.072-29.144z" fill="#fff"/>
 <path d="m360.18434,258.36335c-1.7-1.086-3.923.856-6.958-.326-6.257-2.436-12.71-4.586-19.11-5.004-4.671-.304-9.314.674-13.832,1.358-6.644,1.006-13.493,2.38-18.335,6.674-3.231,2.867-4.762,8.427-6.892,12.728-1.286,2.594-3.639,5.444-4.305,8.608-1.4,6.646-1.968,20.581-.861,23.982 2.665,8.185 12.558,26.943 32.915,37.169 32.57,16.361 66.05-10.083 71.832-21.442 2.928-5.752-1.588-13.534-2.733-19.987-1.847-10.405-6.48-19.778-15.014-28.182-4.878-4.803-10.403-11.55-16.707-15.578z"/>
 <path d="m357.88 262.51c-24.296-16.062-56.606-8.259-61.833 22.834-5.607 33.394 24.038 63.102 57.604 59.451 12.965-1.411 25.209-8.823 31.518-20.392 13.411-24.569-8.473-48.421-27.289-61.893z" fill="#fff"/>
 <path d="m259.93234,347.58735c1.029-4.802 4.459-10.462 6.517-14.749 .686-1.544 2.23-3.601 4.288-3.601 6.688,0 3.944,11.49 3.944,15.606 0,2.915-.686,6.345-.686,9.603 0,3.43 0,6.003-1.372,8.918h-2.058l-.171-.171c0-1.029-.686-2.401-.515-3.773 .515-3.945.858-8.06.858-12.005 0-1.029.131-4.647-1.201-5.831-3.166-2.815-6.778,1.042-8.403,4.974-.066.158-.686.857-1.029,1.029h-.172z"/>
 <path d="m278.81534,335.71735c.256-2.627 1.377-5.913 3.412-5.966 2.94-.076 3.812,3.55 4.841,7.2 .726,2.572 1.427,5.704 1.905,8.082 .624,3.099 1.018,7.485 1.335,10.727 .306,3.116.056,7.07-1.071,8.443s-3.066,2.42-4.781,2.077c5.455-5.775.914-17.635-.35-21.549-2.873-8.898-6.662,5.075-5.291-9.014z"/>
 <path d="m167.3 331.46c3.925 0 7.47 8.354 11.567 8.354 4.042 4.042 9.807 3.381 14.137 7.711 5.71 5.71 21.685 3.856 29.561 3.856 5.14 0 12.209-1.928 17.35-1.928 0 3.213 0 6.426-1.285 8.997-3.024 6.047-7.352 2.33-11.567 5.14-3.856 2.571-9.639 6.427-14.138 6.427-3.427 0-12.723 1.414-15.422-1.286-3.213-3.213-7.712-7.711-11.567-10.281s-11.568-4.499-11.568-9.64c2.294 0 4.188 0.643 6.427 0.643h1.927c-5.14 0-7.711-6.426-11.567-8.997-1.927-1.285-8.354-7.711-8.354-10.281-0.642 0-5.14-6.427-5.14-6.427 0 0.643 3.855 3.856 5.14 4.499 2.571 1.285 3.213 3.855 4.499 3.213z" fill="#b1b4b6"/>
 <path d="m186.16 260.38c-8.103 4.139-12.176 12.735-14.356 13.887-9.794 5.176-13.577 23.082-10.924 33.121 1.667 6.311 1.315-6.128 1.315-6.457 0-0.811 1.531-7.804 2.041-8.315 3.452-3.452 2.856-4.641 6.283-8.067 0.909-0.909 1.035-2.595 1.285-3.856 0.147-0.74 6.586-12.021 14.356-20.313z" fill="#b1b4b6"/>
 <path d="m266.50134,414.19135c.331,1.346.717,2.987 1.386,4.038 .191.301.849,1.178.998,1.515l.433.673c.082.127.382-.842.764-.842 0-1.177 1.146-2.86 1.146-4.374 0-4.207.127-8.919.127-13.294 0-1.682-.509-3.197-.764-4.711-.509-2.692-.909-5.881-1.528-8.245-.526-2.011-.963-1.766-2.567-2.276-2.61-.829-4.335,2.767-3.742,8.803 .035.359.321,1.557.362,1.718 .42,1.663 3.053,15.345 3.385,16.995z" fill="#737476"/>
 <path d="m259.39734,351.44435c1.558-3.887 3.532-4.497 6.066-2.141 1.487,1.383 2.457,3.395 2.836,4.381 .663,1.723.506,3.805.454,5.651-.036,1.28.181,2.241-.01,3.35-.387,2.24.128,2.088-2.847,2.504-1.181.165-2.983.275-5.562-2.527-3.22-3.499-1.794-9.081-.937-11.218z" fill="#b1b4b6"/>
 <path d="m416.95034,329.44535-.038.078c-.339.712-.686,1.419-1.04,2.122l-.119.236c-.108.215-.218.429-.328.643l-.087.169c-.359.695-.725,1.385-1.098,2.072l-.11.201c-.362.662-.73,1.321-1.105,1.975l-.154.266-.329.568-.185.312-.592.991-.184.305c-.107.176-.215.352-.324.527l-.207.334c-.385.618-.776,1.232-1.173,1.841l-.155.236-.37.561c-.07.105-.141.209-.211.313l-.567.837-.285.414-.316.453-.308.436-.277.389c-.189.264-.379.526-.571.788-.069.095-.139.189-.209.284l-.445.598-.21.28-.621.814c-.043.055-.086.11-.129.165l-.533.68c-.073.092-.146.185-.22.277l-.502.625c-.055.068-.108.135-.163.202-.216.264-.432.527-.651.788l-.2.239-.509.6c-.072.085-.144.17-.217.254-.221.258-.445.514-.669.769l-.132.148-.599.67c-.058.065-.117.129-.175.194-.224.247-.45.492-.676.736l-.046.05-.027.029c-.24.257-.481.512-.724.766-.052.055-.106.11-.159.166-.21.219-.422.437-.634.653l-.141.144-.752.754-.135.132-.652.635-.176.17c-.258.248-.517.494-.779.738-4.371,4.08-10.137,6.362-14.991,9.851-9.664,6.945-17.106,19.392-28.269,22.273-5.161,1.332-11.124-.328-15.848,2.141-1.576.824-2.927,1.799-4.094,2.892-9.298-1.151-18.482-4.14-21.923-11.432-5.153-10.919-5.141-19.921-5.141-32.774 12.852,5.784 26.347,17.351 41.127,17.351 20.564,0 39.842-11.567 53.98-25.705 8.244-8.244 17.068-20.586 22.866-31.051-1.73,5.736-3.899,11.39-6.489,16.827z" fill="#737476"/>
 <path d="m157.67 213.86c-9.772 29.974-17.201 82.82 0 51.41 14.78-26.991 30.098-23.551 25.061-43.698-2.57-10.282-6.445-16.844 0-41.128-0.394-3.405-5.375 4.905-11.22 13.125s-12.557 16.349-13.841 20.291z" fill="#9e9fa1"/>
 <path d="m278.61 347.23c1.963-5.748 9.117 19.071 3.581 19.256-1.015 0.035-1.803 0.194-3.5-1.149-1.621-1.283-0.811-15.97-0.081-18.107z" fill="#b1b4b6"/>
 <path d="m204.6 259.09c4.301-2.844 8.82-4.931 13.38-6.281 4.845 3.654-4.932 7.14-4.932 15.595 0 8.184 5.874 16.65 6.787 19.619 0.972 3.159 2.038 10.103 2.038 11.4 0 6.921 0.256 11.133 0.182 17.678-0.043 3.869-0.338 9.777-2.788 13.339s-4.478 7.577-2.08 11.058c-28.941 1.905-53.874-24.538-39.659-53.264 5.968-12.065 16.285-21.423 27.072-29.144z" fill="#ccc"/>
 <path d="m237.47 255.61c6.987 2.038 12.252 4.419 17.176 9.316 7.819 7.777 10.112 31.023 6.987 39.883-3.721 10.549-10.981 19.251-14.847 18.923-5.801-0.493 3.348-3.785 7.86-11.354 5.251-8.809 5.368-31.624-2.038-43.959-2.571-4.281-9.932-9.024-15.429-9.898l0.291-2.911z" fill="#ccc"/>
 <path d="m209.25 341.31c-25.297-2.851-44.608-27.025-31.715-53.079 5.629-11.38 15.128-20.352 25.241-27.813-3.308 9.107-10.321 20.983-8.691 39.41 1.13 12.769 0.664 27.398 15.165 41.482z" fill="#b1b4b6"/>
 <path d="m217.78834,299.79135c-.079-.398-.117-.732-.156-1.066-1.738-3.628-2.685-9.624-3.89-11.927-.961-.419-2.415-.491-3.456-.71-2.631-.93-5.289-1.852-7.994-2.545-1.713-1.937-2.959-4.123-3.979-6.512-.744-2.705-1.874-5.111-2.67-7.716l-.012.002c-.011.961-.198,1.902-.54,2.781 .754,1.53 1.811,3.758 2.216,5.388 1.121,2.534 4.188,7.38 5.972,8.052-1.163.854-2.25,1.918-3.449,2.7-1.058.398-2.024.739-3.058,1.097-2.251-2.485-4.501-4.97-6.71-7.392-.38-.08-.5.285-.715.556 .774.789 1.547,1.545 2.146,2.463 1.707,1.972 3.359,4.25 5.178,6.105 2.263-.938 4.304-2.588 6.321-3.904 .709-.462 1.462-.882 2.038-1.511 1.067.26 7.546,2.466 7.609,2.425 1.982,3.038 1.803,8.079 4.069,10.939-.604.124-1.186.348-1.752.641-.054-.092-.118-.186-.188-.285-.099.184-.197.368-.29.55-2.713,1.608-5.089,4.669-7.874,5.765-.027-.07-6.587-2.025-7.607-2.431-.105-.847-.476-1.625-.786-2.413-.882-2.24-1.59-4.768-2.892-6.843-2.557.458-5.222,1.359-7.756,1.977-1.02.401-2.089.57-3.176.765 .018.345-.096.712.26.867 3.204-.694 6.478-1.416 9.751-2.139 .636.891 1.226,1.729 1.858,2.666 .524,1.332.795,2.829 1.248,4.198-1.844-.485-7.151,1.689-9.533,3.105-1.274,1.093-3.426,2.298-4.927,3.108-.231.914-.623,1.79-1.171,2.58l.009.009c2.158-1.663 4.473-2.97 6.646-4.744 2.215-1.357 4.497-2.416 7.015-3.003 2.607,1.002 5.308,1.79 7.991,2.556 .976.425 2.202,1.208 3.228,1.423 1.578-.803 4.053-3.074 6.581-5.056-.833,1.803-1.603,3.718-2.744,5.29-.82,1.654-1.528,3.391-2.078,5.017-5.559,1.672-11.937,1.807-17.073,4.543-.533,2.105-1.067,4.21-1.499,6.284-1.381,2.569-3.992,3.024-6.639,3.229 .363.294.701.621 1.01.978 2.917-.36 5.845-1.179 6.704-4.141 .33-2.044.4-4.399 1.994-5.933 2.212-.776 4.951-1.364 7.264-1.851-.405,2.787-1.827,5.562-3.173,8.065-.677,1.26-1.569,3.848-2.302,4.992 1.552.82 3.554,2.024 4.845,2.98 .513-.053 1.034-.056 1.554-.007 .068-.167.131-.342.181-.528-1.664-1.078-3.146-1.88-4.564-2.842 .415-2.734 1.269-4.357 2.573-6.782 .84-2.197 1.211-4.475 2.815-6.347 2.44-.567 4.917-.922 6.817-1.418 1.803-4.311 3.952-8.395 5.828-12.666 .675-.482 1.342-.919 1.986-1.275l.332-.363c.134.133.276.258.425.377l.189-.123zm20.032,12.846c.114.166.126.255.139.345 .049.357.099.714.047.995 .543,1.29 1.087,2.58 1.618,3.782 .789.437 1.566.784 2.253,1.144 2.459.66 5.033,1.487 7.068,3.025 .697,1.087 1.394,2.174 1.747,3.4 .114.167.216.243.317.32 .179-.024.358-.049.435-.151-.323-2.323-.549-3.293-2.226-4.881-1.973-1.093-4.328-2.314-6.572-2.731-.776-.347-1.846-.836-2.225-1.603-.514-2.387-1.219-4.839-2.844-6.708-.881.214-1.762.427-2.656.551-2.749,1.839-2.906-.598-3.739-2.668-1.866-2.291-4.626-4.457-6.889-6.328-.075.099-.162.112-.33.136-.075-.399-.188-.788-.351-1.165l-.225.019c-.118.388-.242.7-.367,1.013-.187,4.018-2.193,9.747-2.221,12.347 .647.824 1.894,1.576 2.707,2.262 1.876,2.065 3.781,4.135 5.836,6.027 .591,2.517.654,5.032.42,7.619-.625,2.735-.77,5.389-1.302,8.061l.011.004c.466-.841 1.076-1.582 1.793-2.194 .061-1.704.185-4.168.6-5.794 .212-2.763-.194-8.484-1.447-9.921 1.429-.202 2.89-.623 4.317-.745 1.12.151 2.132.309 3.212.483 .805,3.254 1.611,6.509 2.409,9.688 .298.251.575-.015.894-.151-.308-1.062-.631-2.094-.724-3.186-.57-2.545-.946-5.334-1.669-7.829-2.438-.246-5.017.241-7.416.445-.844.071-1.706.084-2.511.366-.817-.734-5.479-5.746-5.553-5.74-.29-3.411 1.961-7.483 1.674-10.949 2.27,2.102 4.777,4.179 6.221,6.842 .389,1.494.665,2.822 1.784,3.668 1.608-.223 3.117-1.161 4.814-1.397 .534.564.839.794.951,1.599zm-14.686-14.046c.275.299.481.565.687.83 3.369,2.199 7.291,6.832 9.517,8.174 1.039-.141 2.319-.834 3.322-1.187 2.732-.571 5.482-1.163 8.154-1.975 2.47.766 4.669,1.987 6.781,3.499 2.041,1.926 4.255,3.396 6.288,5.209l.009-.008c-.489-.828-.817-1.729-.982-2.657-1.438-.917-3.499-2.272-4.691-3.455-2.273-1.583-7.411-4.133-9.285-3.781 .551-1.334.928-2.807 1.547-4.099 .698-.888 1.346-1.682 2.044-2.524 3.213.955 6.427,1.911 9.572,2.834 .367-.129.279-.503.323-.847-1.071-.272-2.125-.517-3.113-.991-2.483-.799-5.077-1.888-7.595-2.529-1.447,1.976-2.335,4.446-3.376,6.618-.365.763-.791,1.513-.957,2.35-1.047.331-7.73,1.809-7.762,1.878-3.65-1.749-6.294-7.028-10.385-7.542l-.098.203zm-9.095,20.097c-.122.16-.203.2-.284.24-.323.16-.647.32-.929.358-1.054.923-2.107,1.845-3.08,2.728-.166.886-.251,1.733-.376,2.499 .148,2.542.175,5.244-.644,7.66-.812,1.005-1.624,2.009-2.677,2.73-.122.16-.163.281-.203.402 .079.162.159.323.28.364 2.103-1.038 2.953-1.557 3.932-3.65 .414-2.216.831-4.836.52-7.097 .085-.847.212-2.015.82-2.618 2.104-1.239 4.209-2.681 5.471-4.812-.48-.769-.96-1.538-1.36-2.346-2.611-2.031-.347-2.947 1.354-4.39 1.586-2.493 2.773-5.795 3.836-8.532-.121-.041-.161-.122-.241-.284-.161.08-.323.16-.525.159-1.305,2.857-2.491,5.957-4.6,8.205-1.296.84-2.469,1.52-2.919,2.849 .718,1.456 2.084,2.592 2.842,4.129-.366.684-.489,1.046-1.217,1.406zm-20.518,21.63 .107-.199c-.132-.071-.305.092-.107.199zm23.708-61.309c.031-.199.083-.273.135-.346 .21-.294.419-.588.65-.756 .491-1.311.982-2.623 1.421-3.86-.274-.86-.6-1.646-.853-2.379-1.334-2.169-2.637-4.537-3.06-7.053 .239-1.269.479-2.538 1.065-3.671 .031-.199.01-.325-.011-.451-.147-.105-.294-.209-.42-.188-1.361,1.91-1.863,2.77-1.734,5.077 .684,2.149 1.558,4.653 2.902,6.497 .326.786.768,1.876.517,2.694-1.265,2.088-2.437,4.355-2.539,6.829 .787.45 1.574.9 2.309,1.423 3.262.552 1.702,2.431.886,4.508-.216,2.946.302,6.416.663,9.331 .125-.022.199.031.346.135 .105-.146.209-.293.387-.388-.203-3.135-.627-6.427.166-9.405 .743-1.354 1.454-2.508 1.222-3.892-1.322-.942-3.063-1.296-4.459-2.29-.001-.776-.064-1.154.407-1.815zm6.141,18.913c.128-.384.208-.711.287-1.038 .398-.619.779-1.32 1.145-2.065-.371-4.65-.411-9.264-.865-13.914 1.439-1.337 3.452-2.822 5.333-4.478 .527-2.408-.226-4.59-.527-6.922 0-2.754-.015-4.588-.945-7.192-1.705-.176-3.389-.181-5.366-.342-.044-.188-.072-.371-.09-.551 .481-.203.938-.453 1.365-.742 1.59.231 3.923.343 5.679.33-.104,1.354.335,4.057.335,5.487 0,2.842.063,5.959 1.026,8.605 1.806-1.523 3.941-3.338 5.521-5.069 .677-2.107-.376-4.214-1.054-6.17-.646-3.016 1.546-5.123 3.944-6.822 .441.168.894.296 1.353.383-2.235,1.434-4.319,3.071-4.319,5.988 .602,2.031 1.129,4.138 1.656,6.245-3.228,4.841-8.781,7.981-12.886,12.086 .286,1.692.485,3.557.546,5.402-.26,1.926-.032,3.977.088,5.959 1.288-2.943 2.392-6.115 3.402-7.569 1.006-.297 2.457-.188 3.518-.276 2.725-.596 5.477-1.181 8.248-1.532 1.94-1.71 3.448-3.724 4.756-5.968 1.074-2.592 2.494-4.839 3.607-7.325l.012.004c-.108.955-.039,1.912.191,2.826-.938,1.425-2.264,3.505-2.868,5.071-1.427,2.375-5.072,6.803-6.926,7.249 1.048.991 1.995,2.181 3.088,3.107 1,.526 1.917.984 2.898,1.468 2.542-2.187 5.083-4.373 7.575-6.502 .388-.032.461.345.641.641-.866.687-1.727,1.341-2.435,2.177-1.939,1.745-3.86,3.8-5.896,5.415-2.129-1.211-3.95-3.102-5.787-4.658-.646-.547-1.342-1.057-1.835-1.753-1.091.126-7.794,1.51-7.851,1.462-1.934,2.284-2.577,6.104-4.206,8.807 .005.204.005.412.005.621-.108-.054-.208-.107-.299-.161-.515.753-1.126,1.396-1.892,1.862l-.172-.146zm1.686-47.68v.226c.151,0 .226-.226 0-.226z" fill="#f00" fill-opacity=".49412"/>
 <path d="m220.28 287.79c4.682 0 8.482 3.8 8.482 8.482s-3.8 8.482-8.482 8.482-8.483-3.8-8.483-8.482 3.801-8.482 8.483-8.482z"/>
 <path d="m357.88 262.51c-24.296-16.062-56.606-8.259-61.833 22.834-5.607 33.394 24.038 63.102 57.604 59.451 12.965-1.411 25.209-8.823 31.518-20.392 13.411-24.569-8.473-48.421-27.289-61.893z" fill="#fff"/>
 <path d="m323.00034,255.36935c-13.233,3.031-24.104,13.052-26.949,29.977-5.607,33.394 24.038,63.102 57.604,59.451l.604-.071 .414-.321c4.326-3.46 3.893-6.056 3.893-11.246 0-9.517-17.735-17.736-17.735-28.117v-11.247c-3.461,0-12.545-11.247-13.41-14.275-2.595-6.921 1.731-15.572 1.731-21.628-.866,1.298-.866-.433-.866-.433-.432-.865-1.73-.865-1.73-1.73-.625,0-2.051-.2-3.556-.36z" fill="#ccc"/>
 <path d="m318.95 256.55c-11.358 4.02-20.347 13.641-22.895 28.801-5.409 32.215 21.99 60.996 54.067 59.709-0.162-1.164-0.44-2.286-0.44-3.27-0.554 0-3.878-4.154-4.985-4.708-0.554-0.277-6.093-3.323-6.093-3.6-9.693 0-18.832-14.955-23.817-21.602-7.755-10.524-9.693-27.14-3.601-39.326 2.165-4.57 6.628-10.812 7.764-16.004z" fill="#b1b4b6"/>
 <path d="m340.73434,298.70635c.079-.397.117-.731.156-1.066 1.738-3.628 2.685-9.624 3.89-11.926 .961-.42 2.415-.492 3.456-.71 2.631-.931 5.289-1.852 7.994-2.545 1.713-1.938 2.959-4.123 3.979-6.512 .744-2.705 1.874-5.111 2.67-7.717l.012.002c.011.962.198,1.903.54,2.781-.754,1.531-1.811,3.759-2.216,5.388-1.121,2.534-4.188,7.381-5.972,8.053 1.163.854 2.25,1.917 3.449,2.7 1.058.397 2.024.738 3.058,1.096 2.251-2.485 4.501-4.97 6.71-7.392 .38-.08.5.285.715.557-.774.789-1.547,1.545-2.146,2.463-1.707,1.971-3.359,4.249-5.178,6.104-2.263-.937-4.304-2.587-6.321-3.903-.709-.463-1.462-.882-2.038-1.512-1.067.26-7.546,2.466-7.609,2.425-1.982,3.038-1.803,8.08-4.069,10.939 .605.125 1.186.348 1.752.641 .054-.091.118-.185.188-.284 .099.184.197.367.29.549 2.713,1.609 5.089,4.669 7.874,5.765 .027-.07 6.587-2.024 7.607-2.43 .105-.847.476-1.626.786-2.413 .882-2.241 1.59-4.769 2.892-6.844 2.557.459 5.223,1.359 7.756,1.977 1.02.402 2.089.57 3.176.765-.018.346.096.713-.26.868-3.204-.695-6.478-1.417-9.751-2.139-.636.89-1.226,1.728-1.858,2.665-.524,1.333-.795,2.829-1.248,4.199 1.844-.486 7.151,1.688 9.533,3.104 1.274,1.094 3.426,2.298 4.927,3.109 .231.914.623,1.789 1.171,2.579l-.009.009c-2.158-1.662-4.472-2.969-6.646-4.743-2.215-1.357-4.497-2.417-7.015-3.004-2.607,1.003-5.308,1.791-7.991,2.557-.976.424-2.202,1.208-3.228,1.423-1.578-.804-4.053-3.074-6.581-5.056 .833,1.802 1.603,3.717 2.744,5.29 .82,1.654 1.528,3.391 2.078,5.016 5.559,1.672 11.937,1.808 17.073,4.543 .533,2.105 1.067,4.21 1.499,6.285 1.381,2.568 3.992,3.023 6.639,3.228-.363.294-.701.621-1.01.979-2.917-.361-5.845-1.18-6.704-4.142-.33-2.044-.4-4.398-1.994-5.933-2.212-.776-4.951-1.364-7.264-1.85 .405,2.786 1.827,5.562 3.173,8.065 .677,1.259 1.569,3.848 2.302,4.991-1.552.821-3.554,2.025-4.845,2.981-.513-.053-1.034-.056-1.554-.008-.068-.167-.131-.341-.181-.528 1.664-1.077 3.146-1.88 4.564-2.842-.415-2.734-1.269-4.357-2.573-6.782-.84-2.197-1.21-4.475-2.815-6.346-2.44-.567-4.917-.923-6.817-1.419-1.803-4.311-3.952-8.394-5.828-12.666-.675-.482-1.342-.918-1.986-1.275l-.332-.362c-.134.132-.276.258-.425.377l-.189-.124zm-20.032,12.846c-.114.166-.126.256-.139.345-.049.357-.099.715-.047.995-.543,1.291-1.087,2.581-1.618,3.782-.789.437-1.566.785-2.253,1.144-2.459.66-5.033,1.487-7.068,3.026-.697,1.087-1.394,2.174-1.747,3.4-.114.166-.216.243-.317.32-.179-.025-.357-.05-.435-.152 .323-2.322.549-3.293 2.226-4.881 1.973-1.092 4.328-2.313 6.572-2.73 .776-.348 1.846-.837 2.225-1.603 .514-2.388 1.219-4.84 2.844-6.708 .881.213 1.762.426 2.656.551 2.749,1.838 2.906-.599 3.739-2.668 1.866-2.291 4.626-4.458 6.889-6.329 .075.099.162.113.33.137 .075-.399.188-.788.351-1.166l.225.02c.118.387.242.7.367,1.012 .187,4.018 2.193,9.748 2.221,12.347-.647.824-1.894,1.576-2.707,2.262-1.876,2.065-3.781,4.136-5.836,6.027-.591,2.518-.654,5.033-.42,7.62 .625,2.735.77,5.389 1.303,8.06l-.012.004c-.466-.841-1.076-1.581-1.793-2.193-.061-1.705-.185-4.168-.6-5.795-.212-2.763.194-8.483 1.447-9.921-1.429-.201-2.89-.623-4.317-.744-1.12.151-2.132.308-3.212.482-.805,3.255-1.61,6.509-2.409,9.688-.298.251-.575-.014-.893-.151 .307-1.061.631-2.094.723-3.186 .57-2.545.946-5.333 1.669-7.828 2.438-.247 5.017.24 7.416.444 .844.072 1.706.085 2.511.366 .817-.734 5.479-5.746 5.554-5.739 .289-3.412-1.962-7.483-1.675-10.95-2.27,2.102-4.777,4.179-6.221,6.843-.389,1.494-.665,2.822-1.784,3.668-1.608-.224-3.117-1.162-4.814-1.397-.534.563-.839.794-.951,1.598zm14.686-14.045c-.275.298-.481.564-.687.83-3.369,2.198-7.291,6.831-9.517,8.173-1.039-.14-2.319-.833-3.322-1.187-2.732-.57-5.482-1.163-8.154-1.975-2.47.766-4.669,1.987-6.781,3.5-2.041,1.925-4.255,3.395-6.288,5.209l-.009-.009c.489-.827.817-1.728.982-2.656 1.438-.917 3.499-2.273 4.691-3.455 2.273-1.584 7.411-4.134 9.285-3.782-.551-1.333-.928-2.806-1.547-4.098-.697-.889-1.346-1.682-2.044-2.525-3.213.956-6.427,1.911-9.572,2.834-.367-.129-.279-.503-.323-.846 1.071-.273 2.125-.518 3.113-.991 2.483-.799 5.077-1.889 7.595-2.53 1.447,1.976 2.335,4.447 3.376,6.618 .365.763.791,1.513.957,2.35 1.047.332 7.73,1.81 7.762,1.878 3.65-1.749 6.294-7.027 10.385-7.542l.098.204zm9.095,20.096c.122.161.203.201.284.241 .323.159.647.319.929.358 1.054.922 2.107,1.845 3.08,2.727 .166.887.251,1.733.376,2.499-.148,2.542-.175,5.245.644,7.661 .812,1.004 1.624,2.008 2.677,2.729 .122.161.163.282.203.402-.079.162-.159.324-.28.365-2.103-1.038-2.953-1.558-3.932-3.651-.414-2.216-.831-4.836-.52-7.096-.085-.847-.212-2.016-.82-2.618-2.104-1.24-4.209-2.681-5.471-4.812 .48-.769.961-1.538 1.36-2.347 2.611-2.03.347-2.947-1.354-4.39-1.586-2.493-2.773-5.794-3.836-8.532 .121-.041.161-.122.241-.284 .161.08.323.16.525.159 1.306,2.858 2.491,5.958 4.6,8.205 1.296.841 2.469,1.521 2.919,2.85-.718,1.455-2.084,2.592-2.842,4.128 .366.684.489,1.047 1.217,1.406zm20.518,21.63-.107-.199c.132-.071.305.092.107.199zm-23.708-61.308c-.031-.2-.083-.273-.135-.347-.21-.293-.419-.587-.65-.755-.491-1.312-.982-2.623-1.42-3.861 .273-.859.599-1.645.852-2.379 1.334-2.169 2.637-4.537 3.06-7.052-.239-1.269-.479-2.539-1.065-3.672-.031-.199-.01-.325.012-.451 .146-.104.293-.209.419-.188 1.361,1.911 1.863,2.771 1.734,5.077-.684,2.149-1.558,4.654-2.902,6.497-.326.786-.768,1.876-.517,2.694 1.266,2.089 2.437,4.355 2.539,6.83-.787.449-1.574.899-2.309,1.423-3.262.551-1.702,2.43-.886,4.507 .216,2.947-.302,6.417-.663,9.331-.125-.021-.199.031-.346.136-.105-.147-.209-.294-.387-.388 .203-3.135.627-6.427-.166-9.406-.743-1.353-1.454-2.508-1.222-3.892 1.322-.941 3.063-1.296 4.459-2.29 .001-.776.065-1.153-.407-1.814zm-6.141,18.913c-.128-.385-.208-.712-.287-1.039-.398-.618-.779-1.319-1.145-2.064 .371-4.65.411-9.265.865-13.915-1.439-1.336-3.452-2.822-5.333-4.477-.527-2.408.226-4.59.527-6.923 0-2.753.015-4.588.945-7.191 1.705-.176 3.39-.182 5.366-.343 .044-.187.072-.371.09-.551-.481-.203-.938-.452-1.365-.742-1.59.231-3.923.343-5.679.33 .104,1.355-.335,4.057-.335,5.487 0,2.842-.063,5.96-1.026,8.606-1.806-1.523-3.941-3.339-5.521-5.069-.677-2.107.376-4.214 1.054-6.17 .646-3.016-1.546-5.124-3.944-6.823-.441.169-.894.297-1.353.384 2.235,1.434 4.319,3.07 4.319,5.987-.602,2.032-1.129,4.139-1.656,6.245 3.228,4.842 8.781,7.982 12.886,12.086-.286,1.693-.485,3.558-.546,5.403 .26,1.926.032,3.977-.088,5.959-1.288-2.944-2.392-6.115-3.402-7.57-1.006-.296-2.457-.187-3.518-.275-2.725-.597-5.477-1.181-8.248-1.533-1.94-1.71-3.448-3.723-4.756-5.967-1.074-2.592-2.494-4.839-3.607-7.326l-.012.004c.108.955.039,1.912-.191,2.826 .938,1.425 2.264,3.505 2.868,5.072 1.427,2.374 5.072,6.803 6.926,7.248-1.048.992-1.995,2.182-3.088,3.107-1,.526-1.917.985-2.898,1.468-2.542-2.186-5.083-4.373-7.575-6.502-.388-.032-.461.346-.641.641 .866.687 1.727,1.341 2.435,2.178 1.939,1.745 3.86,3.8 5.896,5.415 2.129-1.212 3.95-3.103 5.787-4.659 .646-.546 1.342-1.057 1.835-1.753 1.091.126 7.794,1.511 7.852,1.462 1.933,2.284 2.577,6.105 4.205,8.807-.005.204-.005.412-.005.621 .108-.054.209-.106.3-.161 .514.753 1.125,1.397 1.891,1.863l.172-.146zm-1.686-47.681v.226c-.151,0-.226-.226 0-.226z" fill="#f00" fill-opacity=".49412"/>
 <path d="m337.46 288.61c4.682 0 8.482 3.8 8.482 8.482s-3.8 8.483-8.482 8.483-8.483-3.801-8.483-8.483 3.801-8.482 8.483-8.482z"/>
 <path d="m363.81 338.3c6.987-2.038 9.924-4.71 14.847-9.607 7.819-7.776 7.783-24.037 4.658-32.896-3.72-10.548-12.146-19.834-15.72-21.543-5.252-2.511 4.513 6.697 9.024 14.265 5.251 8.808 7.114 24.347-0.291 36.681-2.57 4.281-7.603 7.86-12.809 10.189l0.291 2.911z" fill="#ccc"/>
</svg>
