<?xml version='1.0' encoding='utf-8'?>
<svg xmlns="http://www.w3.org/2000/svg" xmlns:osb="http://www.openswatchbook.org/uri/2009/osb" xmlns:xlink="http://www.w3.org/1999/xlink" width="107.8mm" height="40.372mm" version="1.1" viewBox="0 0 381.98449 143.04943">
 <defs>
  <linearGradient id="l">
   <stop offset="0"/>
   <stop stop-opacity="0" offset="1"/>
  </linearGradient>
  <filter id="h" x="-.13652" y="-.14707" width="1.273" height="1.2941" color-interpolation-filters="sRGB">
   <feGaussianBlur stdDeviation="6.4068926"/>
  </filter>
  <linearGradient id="m" x1="344.18" x2="368.42" y1="418.29" y2="462.74" gradientTransform="translate(227.39 320.98)" gradientUnits="userSpaceOnUse" xlink:href="#l"/>
  <filter id="i" x="-.032855" y="-.03981" width="1.0657" height="1.0796" color-interpolation-filters="sRGB">
   <feGaussianBlur stdDeviation="2.1503727"/>
  </filter>
  <filter id="j" x="-.008462" y="-.020623" width="1.0169" height="1.0412" color-interpolation-filters="sRGB">
   <feGaussianBlur stdDeviation="0.43393294"/>
  </filter>
  <filter id="k" x="-.022472" y="-.0081855" width="1.0449" height="1.0164" color-interpolation-filters="sRGB">
   <feGaussianBlur stdDeviation="0.3239502"/>
  </filter>
  <linearGradient id="n" x1="474.06" x2="447.83" y1="413.7" y2="458.85" gradientTransform="matrix(-1 0 0 1 609.38 320.98)" gradientUnits="userSpaceOnUse" xlink:href="#l"/>
 </defs>
 <g transform="translate(-227.39 -320.98)">
  <path d="m389.63 414.1c1e-5 16.568-15.597 29.56-30.229 36.69-15.354 7.481-30.143 10.183-52.466 6.3172-42.656-7.3877-74.385-53.381-74.385-87.333 1e-5 -33.952 43.891-49.445 85.777-35.355 51.77 17.414 71.302 45.729 71.302 79.681z" fill="url(#m)" filter="url(#i)"/>
  <path d="m383.07 410.46c1e-5 15.857-14.694 28.293-28.479 35.117-14.465 7.1604-28.399 9.7468-49.429 6.0465-40.187-7.0711-70.079-51.093-70.079-83.59 1e-5 -32.497 41.35-47.326 80.812-33.84 48.773 16.668 67.175 43.769 67.175 76.267z" fill="#007600"/>
  <ellipse transform="matrix(.94619 0 0 .94203 -166.67 188.17)" cx="502.8" cy="208.63" rx="56.316" ry="52.275" fill="#ffc717" filter="url(#h)"/>
  <path transform="matrix(1.3182 0 0 1.2197 -254.54 1.2432)" d="m455.04 350.59-24.777-31.439 22.13 35.731-22.398-35.388 17.03 37.74-16.866-37.294 12.044 39.708-12.37-38.73 7.6532 39.359-8.8393-39.253 4.5567 39.467-6.5187-37.942 0.98257 38.451-0.73397-39.576-3.2346 40.518 1.5886-39.85-5.7707 40.116 5.1948-39.699-10.651 38.36 11.135-40.126-15.672 37.094 14.062-36.536-20.279 34.956 19.563-35.95-22.596 34.302 22.854-34.695-28.117 31.077 26.939-31.139-30.482 26.86 30.99-27.69-33.558 25.529 32.075-26.042-34.01 21.78 34.632-20.706-38.089 16.196 36.961-16.991-38.04 11.646 38.143-11.834-38.965 8.33 38.376-10.293-40.312 4.2296 39.498-4.8798-40.013-0.72622 40.282-0.46444-39.717-3.6223 40.117 2.8408-40.211-9.0666 40.62 9.2461-39.88-12.675 40.42 11.342-37.564-17.476 37.76 18.248-35.638-22.163 34.522 19.869-32.395-24.702 33.485 24.964-30.205-27.294 30.968 26.391-28.064-31.359 26.959 30.292-22.761-33.646 24.264 33.382-19.671-34.213 19.703 34.299-14.649-37.506 14.789 35.972-9.6481-38.194 11.234 38.196-6.8299-39.457 8.3544 39.134-4.5628-39.677 4.4479 40.206 0.97707-40.646-0.63872 41.292 5.5944-39.909-3.5965 39.355 8.0554-38.642-8.0689 38.63 12.968-37.407-12.227 38.401 16.883-37.014-16.684 36.307 22.227-33.512-22.417 35.086 26.486-32.334-24.887 31.284 27.416-27.698-25.92 28.282 30.157-24.713-30.45 24.927 32.93-21.903-31.955 22.972 35.301-19.031-35.914 19.918 38.402-15.281-38.367 16.394 39.727-10.972-38.998 10.735 39.865-6.5176-39.65 6.5189 39.756-0.19448-38.344 2.6964 38.99 1.2769-39.754-1.0705 39.481 6.9901-39.398-6.8526 37.895 10.948-38.797-10.242 38.174 14.237-38.113-12.549 36.844 18.173-36.56-18.523 32.541 23.626-33.608-23.478 32.507 27.44-31.973-26.206 27.153 27.969-28.892-28.157z" fill="#36690b"/>
  <path transform="translate(-120.21 69.195)" d="m455.04 350.59-24.777-31.439 22.13 35.731-22.398-35.388 17.03 37.74-16.866-37.294 12.044 39.708-12.37-38.73 7.6532 39.359-8.8393-39.253 4.5567 39.467-6.5187-37.942 0.98257 38.451-0.73397-39.576-3.2346 40.518 1.5886-39.85-5.7707 40.116 5.1948-39.699-10.651 38.36 11.135-40.126-15.672 37.094 14.062-36.536-20.279 34.956 19.563-35.95-22.596 34.302 22.854-34.695-28.117 31.077 26.939-31.139-30.482 26.86 30.99-27.69-33.558 25.529 32.075-26.042-34.01 21.78 34.632-20.706-38.089 16.196 36.961-16.991-38.04 11.646 38.143-11.834-38.965 8.33 38.376-10.293-40.312 4.2296 39.498-4.8798-40.013-0.72622 40.282-0.46444-39.717-3.6223 40.117 2.8408-40.211-9.0666 40.62 9.2461-39.88-12.675 40.42 11.342-37.564-17.476 37.76 18.248-35.638-22.163 34.522 19.869-32.395-24.702 33.485 24.964-30.205-27.294 30.968 26.391-28.064-31.359 26.959 30.292-22.761-33.646 24.264 33.382-19.671-34.213 19.703 34.299-14.649-37.506 14.789 35.972-9.6481-38.194 11.234 38.196-6.8299-39.457 8.3544 39.134-4.5628-39.677 4.4479 40.206 0.97707-40.646-0.63872 41.292 5.5944-39.909-3.5965 39.355 8.0554-38.642-8.0689 38.63 12.968-37.407-12.227 38.401 16.883-37.014-16.684 36.307 22.227-33.512-22.417 35.086 26.486-32.334-24.887 31.284 27.416-27.698-25.92 28.282 30.157-24.713-30.45 24.927 32.93-21.903-31.955 22.972 35.301-19.031-35.914 19.918 38.402-15.281-38.367 16.394 39.727-10.972-38.998 10.735 39.865-6.5176-39.65 6.5189 39.756-0.19448-38.344 2.6964 38.99 1.2769-39.754-1.0705 39.481 6.9901-39.398-6.8526 37.895 10.948-38.797-10.242 38.174 14.237-38.113-12.549 36.844 18.173-36.56-18.523 32.541 23.626-33.608-23.478 32.507 27.44-31.973-26.206 27.153 27.969-28.892-28.157z" fill="#833c00"/>
  <path transform="translate(-120.21 70.206)" d="m455.04 350.59-26.043-30.412 15.65 39.028-15.952-38.582 1.0625 41.964-4.4221-41.295-8.7064 40.218 6.9105-40.305-19.55 34.825 17.95-36.664-29.239 26.945 27.629-28.408-36.542 18.617 35.433-19.488-38.488 4.9652 38.638-6.155-40.1-6.7314 40.707 4.8796-35.664-19.79 35.835 17.93-28.208-28.897 29.237 26.13-19.024-35.379 22.511 34.219-8.5368-39.524 9.9917 39.295 2.3048-38.91-0.52074 38.481 15.402-37.116-14.79 38.09 27.472-30.257-24.756 31.592 32.474-21.348-30.914 22.561 38.141-9.552-38.348 13.401 40.737 0.31489-40.461 0.28274 38.249 12.441-39.032-10.851 33.048 23.384-33.17-21.811z" fill="#89690b"/>
  <path d="m296.58 329.82c-3.292 10.001-3.6367 23.987-3.6367 40.055 0 30.335 7.7449 54.928 17.299 54.928 9.5539 0 17.299-24.592 17.299-54.928 0-11.985-0.20033-23.066-2.041-32.096-3.0662-1.2411-6.2588-2.4396-9.6074-3.584-6.451-2.2045-12.949-3.6373-19.312-4.375z" filter="url(#k)"/>
  <path d="m292.05 341.96c-15.1 1e-3 -28.732 4.2918-37.531 12.578l9.9316 4.2285c28.687-16.836 77.007-2.9029 95.508 14.828-17.832-21.438-44.608-31.637-67.908-31.635zm4.4356 10.73c-11.208 0.0909-21.617 2.4057-30.021 6.9336l17.959 7.6445c31.853-9.886 63.534 3.3922 82.947 15.219-19.32-20.047-46.917-29.991-70.885-29.797zm-46.756 7.4805c-4.3704 6.5119-6.3681 14.714-5.0137 24.541 2.6478-9.056 7.2082-15.977 13.047-21.121l-8.0332-3.4199zm9.7285 4.1426c-7.9528 6.5834-12.916 15.96-13.154 28.146 9.2192-10.081 18.886-17.025 28.65-21.551l-15.496-6.5957z" fill="#fff" fill-rule="evenodd" filter="url(#j)" opacity=".419"/>
  <path transform="matrix(-1 0 0 1 836.77 0)" d="m389.63 414.1c1e-5 16.568-15.597 29.56-30.229 36.69-15.354 7.481-30.143 10.183-52.466 6.3172-42.656-7.3877-74.385-53.381-74.385-87.333 1e-5 -33.952 43.891-49.445 85.777-35.355 51.77 17.414 71.302 45.729 71.302 79.681z" fill="url(#n)" filter="url(#i)"/>
  <path d="m453.71 410.46c-1e-5 15.857 14.694 28.293 28.479 35.117 14.465 7.1604 28.399 9.7468 49.429 6.0465 40.187-7.0711 70.079-51.093 70.079-83.59-1e-5 -32.497-41.35-47.326-80.812-33.84-48.773 16.668-67.175 43.769-67.175 76.267z" fill="#007600"/>
  <ellipse transform="matrix(-.94619 0 0 .94203 1003.4 188.17)" cx="502.8" cy="208.63" rx="56.316" ry="52.275" fill="#ffc717" filter="url(#h)"/>
  <path transform="matrix(-1.3182 0 0 1.2197 1091.3 1.2432)" d="m455.04 350.59-24.777-31.439 22.13 35.731-22.398-35.388 17.03 37.74-16.866-37.294 12.044 39.708-12.37-38.73 7.6532 39.359-8.8393-39.253 4.5567 39.467-6.5187-37.942 0.98257 38.451-0.73397-39.576-3.2346 40.518 1.5886-39.85-5.7707 40.116 5.1948-39.699-10.651 38.36 11.135-40.126-15.672 37.094 14.062-36.536-20.279 34.956 19.563-35.95-22.596 34.302 22.854-34.695-28.117 31.077 26.939-31.139-30.482 26.86 30.99-27.69-33.558 25.529 32.075-26.042-34.01 21.78 34.632-20.706-38.089 16.196 36.961-16.991-38.04 11.646 38.143-11.834-38.965 8.33 38.376-10.293-40.312 4.2296 39.498-4.8798-40.013-0.72622 40.282-0.46444-39.717-3.6223 40.117 2.8408-40.211-9.0666 40.62 9.2461-39.88-12.675 40.42 11.342-37.564-17.476 37.76 18.248-35.638-22.163 34.522 19.869-32.395-24.702 33.485 24.964-30.205-27.294 30.968 26.391-28.064-31.359 26.959 30.292-22.761-33.646 24.264 33.382-19.671-34.213 19.703 34.299-14.649-37.506 14.789 35.972-9.6481-38.194 11.234 38.196-6.8299-39.457 8.3544 39.134-4.5628-39.677 4.4479 40.206 0.97707-40.646-0.63872 41.292 5.5944-39.909-3.5965 39.355 8.0554-38.642-8.0689 38.63 12.968-37.407-12.227 38.401 16.883-37.014-16.684 36.307 22.227-33.512-22.417 35.086 26.486-32.334-24.887 31.284 27.416-27.698-25.92 28.282 30.157-24.713-30.45 24.927 32.93-21.903-31.955 22.972 35.301-19.031-35.914 19.918 38.402-15.281-38.367 16.394 39.727-10.972-38.998 10.735 39.865-6.5176-39.65 6.5189 39.756-0.19448-38.344 2.6964 38.99 1.2769-39.754-1.0705 39.481 6.9901-39.398-6.8526 37.895 10.948-38.797-10.242 38.174 14.237-38.113-12.549 36.844 18.173-36.56-18.523 32.541 23.626-33.608-23.478 32.507 27.44-31.973-26.206 27.153 27.969-28.892-28.157z" fill="#36690b"/>
  <path transform="matrix(-1 0 0 1 956.98 69.195)" d="m455.04 350.59-24.777-31.439 22.13 35.731-22.398-35.388 17.03 37.74-16.866-37.294 12.044 39.708-12.37-38.73 7.6532 39.359-8.8393-39.253 4.5567 39.467-6.5187-37.942 0.98257 38.451-0.73397-39.576-3.2346 40.518 1.5886-39.85-5.7707 40.116 5.1948-39.699-10.651 38.36 11.135-40.126-15.672 37.094 14.062-36.536-20.279 34.956 19.563-35.95-22.596 34.302 22.854-34.695-28.117 31.077 26.939-31.139-30.482 26.86 30.99-27.69-33.558 25.529 32.075-26.042-34.01 21.78 34.632-20.706-38.089 16.196 36.961-16.991-38.04 11.646 38.143-11.834-38.965 8.33 38.376-10.293-40.312 4.2296 39.498-4.8798-40.013-0.72622 40.282-0.46444-39.717-3.6223 40.117 2.8408-40.211-9.0666 40.62 9.2461-39.88-12.675 40.42 11.342-37.564-17.476 37.76 18.248-35.638-22.163 34.522 19.869-32.395-24.702 33.485 24.964-30.205-27.294 30.968 26.391-28.064-31.359 26.959 30.292-22.761-33.646 24.264 33.382-19.671-34.213 19.703 34.299-14.649-37.506 14.789 35.972-9.6481-38.194 11.234 38.196-6.8299-39.457 8.3544 39.134-4.5628-39.677 4.4479 40.206 0.97707-40.646-0.63872 41.292 5.5944-39.909-3.5965 39.355 8.0554-38.642-8.0689 38.63 12.968-37.407-12.227 38.401 16.883-37.014-16.684 36.307 22.227-33.512-22.417 35.086 26.486-32.334-24.887 31.284 27.416-27.698-25.92 28.282 30.157-24.713-30.45 24.927 32.93-21.903-31.955 22.972 35.301-19.031-35.914 19.918 38.402-15.281-38.367 16.394 39.727-10.972-38.998 10.735 39.865-6.5176-39.65 6.5189 39.756-0.19448-38.344 2.6964 38.99 1.2769-39.754-1.0705 39.481 6.9901-39.398-6.8526 37.895 10.948-38.797-10.242 38.174 14.237-38.113-12.549 36.844 18.173-36.56-18.523 32.541 23.626-33.608-23.478 32.507 27.44-31.973-26.206 27.153 27.969-28.892-28.157z" fill="#833c00"/>
  <path transform="matrix(-1 0 0 1 956.98 70.206)" d="m455.04 350.59-26.043-30.412 15.65 39.028-15.952-38.582 1.0625 41.964-4.4221-41.295-8.7064 40.218 6.9105-40.305-19.55 34.825 17.95-36.664-29.239 26.945 27.629-28.408-36.542 18.617 35.433-19.488-38.488 4.9652 38.638-6.155-40.1-6.7314 40.707 4.8796-35.664-19.79 35.835 17.93-28.208-28.897 29.237 26.13-19.024-35.379 22.511 34.219-8.5368-39.524 9.9917 39.295 2.3048-38.91-0.52074 38.481 15.402-37.116-14.79 38.09 27.472-30.257-24.756 31.592 32.474-21.348-30.914 22.561 38.141-9.552-38.348 13.401 40.737 0.31489-40.461 0.28274 38.249 12.441-39.032-10.851 33.048 23.384-33.17-21.811z" fill="#89690b"/>
  <path transform="matrix(-1 0 0 1 836.77 0)" d="m296.58 329.82c-3.292 10.001-3.6367 23.987-3.6367 40.055 0 30.335 7.7449 54.928 17.299 54.928 9.5539 0 17.299-24.592 17.299-54.928 0-11.985-0.20033-23.066-2.041-32.096-3.0662-1.2411-6.2588-2.4396-9.6074-3.584-6.451-2.2045-12.949-3.6373-19.312-4.375z" filter="url(#k)"/>
  <path transform="matrix(.86617 0 0 .8814 83.784 40.558)" d="m517.15 341.96c-15.1 1e-3 -28.732 4.2918-37.531 12.578l9.9316 4.2285c28.687-16.836 77.007-2.9029 95.508 14.828-17.832-21.438-44.608-31.637-67.908-31.635zm4.4356 10.73c-11.208 0.0909-21.617 2.4057-30.021 6.9336l17.959 7.6445c31.853-9.886 63.534 3.3922 82.947 15.219-19.32-20.047-46.917-29.991-70.885-29.797zm-46.756 7.4805c-4.3704 6.5119-6.3681 14.714-5.0137 24.541 2.6478-9.056 7.2082-15.977 13.047-21.121l-8.0332-3.4199zm9.7285 4.1426c-7.9528 6.5834-12.916 15.96-13.154 28.146 9.2192-10.081 18.886-17.025 28.65-21.551l-15.496-6.5957z" fill="#fff" fill-rule="evenodd" filter="url(#j)" opacity=".419"/>
 </g>
</svg>